<!DOCTYPE svg PUBLIC "-//W3C//DTD SVG 1.1//EN" "http://www.w3.org/Graphics/SVG/1.1/DTD/svg11.dtd">
<!-- Uploaded to: SVG Repo, www.svgrepo.com, Transformed by: SVG Repo Mixer Tools -->
<svg fill="#0c7963" height="800px" width="800px" version="1.1" id="Capa_1" xmlns="http://www.w3.org/2000/svg" xmlns:xlink="http://www.w3.org/1999/xlink" viewBox="0 0 297 297" xml:space="preserve" stroke="#0c7963">
<g id="SVGRepo_bgCarrier" stroke-width="0"/>
<g id="SVGRepo_tracerCarrier" stroke-linecap="round" stroke-linejoin="round"/>
<g id="SVGRepo_iconCarrier"> <g> <path d="M222.292,64.598c-1.261,0-2.533,0.237-3.75,0.724L42.861,135.612c-3.934,1.573-6.466,5.436-6.342,9.671 c0.125,4.234,2.88,7.94,6.899,9.28l74.264,24.758l24.753,74.286c1.34,4.02,5.046,6.775,9.281,6.901 c0.1,0.002,0.199,0.004,0.299,0.004c4.118,0,7.837-2.507,9.373-6.348l70.279-175.721c1.499-3.75,0.62-8.033-2.236-10.889 C227.503,65.625,224.921,64.598,222.292,64.598z"/> <path d="M148.5,0C66.653,0,0.067,66.616,0.067,148.499C0.067,230.383,66.653,297,148.5,297s148.433-66.617,148.433-148.501 C296.933,66.616,230.347,0,148.5,0z M244.792,83.694l-70.279,175.721c-3.701,9.253-12.531,15.232-22.497,15.232 c-0.239,0-0.479-0.004-0.717-0.01c-10.121-0.301-19.071-6.955-22.273-16.561l-22.519-67.581L38.95,167.973 c-9.605-3.201-16.26-12.151-16.56-22.275c-0.297-10.12,5.819-19.447,15.22-23.208l175.679-70.29 c2.877-1.151,5.906-1.736,9.003-1.736c6.476,0,12.562,2.523,17.132,7.096C246.29,64.421,248.396,74.68,244.792,83.694z"/> </g> </g>
</svg>